<svg fill="#000000" xmlns="http://www.w3.org/2000/svg" xmlns:xlink="http://www.w3.org/1999/xlink" xml:space="preserve" version="1.1" style="shape-rendering:geometricPrecision;text-rendering:geometricPrecision;image-rendering:optimizeQuality;" viewBox="-0.04723548889160156 -0.04723548889160156 245.094482421875 245.094482421875" x="0px" y="0px" fill-rule="evenodd" clip-rule="evenodd"><defs></defs><g><path class="fil0" d="M180 16l-58 58 -57 -58c-42,-42 -91,7 -49,49l57 57 -57 58c-42,42 7,91 49,49l57 -58 58 58c42,42 91,-7 49,-49l-58 -58 58 -57c42,-42 -7,-91 -49,-49zm-16 45l-36 36c-3,3 -8,3 -11,0l-36 -36c-19,-20 -40,1 -20,20l36 36c3,3 3,8 0,11l-36 36c-20,19 1,39 20,20l36 -36c3,-3 8,-3 11,0l36 36c19,19 39,-1 20,-20l-36 -36c-3,-3 -3,-8 0,-11l36 -36c19,-19 -1,-40 -20,-20z"></path></g></svg>